# xmcd CD database file
#
# Track frame offsets:
#	150
#	21885
#	40957
#	57762
#	80352
#	101030
#	115222
#	132057
#	152100
#	170195
#	187537
#	207912
#	228357
#	245752
#	265297
#	284150
#	301440
#	322275
#
# Disc length: 4560 seconds
#
# Revision: 0
# Processed by: cddbd v1.5.1PL0 Copyright (c) Steve Scherf et al.
# Submitted via: CDex 1.51
#
DISCID=0611ce12
DTITLE=OUR SONGS - OUR SONGS 01
DYEAR=2004
DGENRE=JPop
TTITLE0=ff(フォルティシモ)
TTITLE1=そして僕は途方に暮れる
TTITLE2=初恋
TTITLE3=DIAMONDS〈ダイアモンド〉
TTITLE4=フレンズ
TTITLE5=ランナウェイ
TTITLE6=異邦人
TTITLE7=Hold On Me
TTITLE8=ペガサスの朝
TTITLE9=メモリーグラス
TTITLE10=雨音はショパンの調べ
TTITLE11=シャイニン・オン 君が哀しい
TTITLE12=すみれ September Love
TTITLE13=きみの朝
TTITLE14=恋人よ
TTITLE15=もしもピアノが弾けたなら
TTITLE16=SWEET MEMORIES
TTITLE17=悲しい色やね
EXTD=YEAR: 20041230
EXTT0=
EXTT1=
EXTT2=
EXTT3=
EXTT4=
EXTT5=
EXTT6=
EXTT7=
EXTT8=
EXTT9=
EXTT10=
EXTT11=
EXTT12=
EXTT13=
EXTT14=
EXTT15=
EXTT16=
EXTT17=
PLAYORDER=
